# xmcd
#
# Track frame offsets: 
#        150
#        15315
#        34037
#        56325
#        69060
#        86302
#        98585
#        112832
#        131290
#        153412
#        166815
#        182687
#        196592
#        210150
#        222335
#
# Disc length: 3131 seconds
#
# Revision: 7
# Processed by: cddbd v1.5.2PL0 Copyright (c) Steve Scherf et al.
# Submitted via: ExactAudioCopyFreeDBPlugin 1.0
#
DISCID=a20c390f
DTITLE=Various Artist - House of Blues^ Essential Blues 2 [disc 2]
DYEAR=1996
DGENRE=Blues
TTITLE0=Freddie King - Going Down
TTITLE1=Albert Collins - I Ain't Drunk
TTITLE2=Robert Cray - These Things
TTITLE3=Elmore James - Shake Your Moneymaker
TTITLE4=Magic Sam - All of Your Love
TTITLE5=James Cotton - High Compression
TTITLE6=Sonny Boy Williamson - Help Me
TTITLE7=Willie Dixon - I Ain't Superstitious
TTITLE8=Koko Taylor - Wang Dang Doodle
TTITLE9=Otis Rush - I Can't Quit You Baby
TTITLE10=Muddy Waters - I Can't Be Satisfied
TTITLE11=Slim Harpo - I'm a King Bee
TTITLE12=Amos Milburn - Down the Road Apiece
TTITLE13=Earl Hooker - Blue Guitar
TTITLE14=B.B. King - Everyday I Have the Blues
EXTD=
EXTT0=Freddie King\n
EXTT1=Albert Collins\n
EXTT2=Robert Cray\n
EXTT3=Elmore James\n
EXTT4=Magic Sam\n
EXTT5=James Cotton\n
EXTT6=Sonny Boy Williamson\n
EXTT7=Willie Dixon\n
EXTT8=Koko Taylor\n
EXTT9=Otis Rush\n
EXTT10=Muddy Waters\n
EXTT11=Slim Harpo\n
EXTT12=Amos Milburn\n
EXTT13=Earl Hooker\n
EXTT14=B.B. King\n
PLAYORDER=
